<svg xmlns="http://www.w3.org/2000/svg" xmlns:xlink="http://www.w3.org/1999/xlink" width="1080" zoomAndPan="magnify" viewBox="0 0 810 809.999993" height="1080" preserveAspectRatio="xMidYMid meet" version="1.0"><rect x="-81" width="972" fill="#ffffff" y="-80.999999" height="971.999992" fill-opacity="1"/><rect x="-81" width="972" fill="#ffffff" y="-80.999999" height="971.999992" fill-opacity="1"/><path fill="#000000" d="M 354.980469 -174.671875 C 295.949219 -169.160156 223.535156 -151.054688 176.832031 -129.796875 C 140.625 -113.265625 131.703125 -108.804688 107.042969 -94.109375 C -29.652344 -12.230469 -129.09375 125.804688 -162.9375 280.371094 C -181.566406 365.136719 -180.515625 459.082031 -160.316406 542.535156 C -107.839844 757.199219 56.664062 921.476562 271.023438 972.910156 C 317.460938 984.195312 348.683594 987.34375 404.832031 987.34375 C 502.433594 987.34375 571.175781 971.597656 660.90625 928.5625 C 720.726562 899.695312 766.378906 866.628906 818.066406 814.667969 C 926.425781 705.761719 985.722656 562.214844 985.722656 407.648438 C 985.722656 275.125 946.628906 158.605469 866.34375 52.0625 C 814.394531 -16.691406 743.027344 -75.738281 664.578125 -114.839844 C 583.246094 -155.253906 509.78125 -173.097656 417.949219 -174.933594 C 389.878906 -175.199219 361.542969 -175.199219 354.980469 -174.671875 Z M 313.003906 144.4375 C 323.234375 159.394531 347.109375 193.769531 366 221.324219 C 384.890625 248.617188 407.980469 282.207031 417.425781 295.855469 L 434.480469 320.523438 L 439.726562 314.222656 C 444.710938 307.925781 494.300781 249.40625 529.195312 208.46875 C 539.167969 196.65625 552.808594 180.914062 559.367188 173.039062 C 570.125 160.179688 581.40625 147.058594 600.5625 124.753906 C 606.59375 117.929688 607.90625 117.667969 632.832031 117.667969 C 647.261719 117.667969 659.59375 118.71875 660.382812 120.03125 C 661.167969 121.078125 659.332031 125.015625 656.445312 128.425781 C 653.296875 131.839844 645.425781 141.285156 638.867188 149.160156 C 632.046875 157.03125 622.339844 168.054688 617.089844 174.089844 C 612.105469 179.863281 591.378906 204.007812 571.175781 227.886719 C 551.234375 251.765625 532.082031 274.074219 529.195312 277.746094 C 526.046875 281.421875 510.832031 299.003906 495.351562 317.109375 C 479.871094 335.21875 465.441406 351.75 463.601562 354.113281 C 460.191406 357.785156 464.652344 365.398438 499.546875 415.78125 C 521.324219 447.273438 550.449219 489.785156 564.355469 509.992188 C 577.996094 530.199219 603.445312 567.464844 621.027344 592.65625 C 638.34375 617.851562 658.28125 647.242188 665.628906 657.738281 C 674.550781 670.597656 677.699219 677.683594 675.863281 679.519531 C 674.289062 681.09375 646.476562 681.355469 592.953125 680.308594 L 512.667969 678.46875 L 490.101562 645.40625 C 477.507812 627.296875 458.878906 600.003906 448.386719 584.785156 C 438.152344 569.5625 419 541.746094 406.144531 523.113281 C 379.121094 483.75 368.101562 468.003906 367.050781 468.003906 C 366.527344 468.003906 354.195312 482.175781 339.503906 499.496094 C 324.546875 516.816406 309.855469 533.875 306.707031 537.546875 C 303.558594 541.222656 279.945312 568.777344 254.230469 599.21875 C 228.257812 629.398438 201.757812 660.625 195.199219 668.234375 L 183.390625 682.144531 L 158.464844 681.355469 C 144.824219 680.832031 133.277344 679.257812 132.753906 677.945312 C 131.964844 675.320312 154.53125 648.554688 298.046875 480.078125 L 341.601562 428.902344 L 316.9375 393.476562 C 303.292969 373.792969 278.632812 337.582031 261.839844 313.175781 C 245.046875 288.507812 219.074219 250.71875 204.117188 229.199219 C 142.984375 140.5 131.441406 123.179688 133.277344 120.554688 C 134.328125 118.457031 161.089844 117.667969 214.613281 117.667969 L 294.375 117.667969 Z M 313.003906 144.4375 " fill-opacity="1" fill-rule="nonzero"/><path fill="#000000" d="M 202.808594 166.21875 C 202.808594 167.265625 208.316406 175.664062 215.136719 185.375 C 221.699219 195.082031 232.191406 210.042969 238.226562 218.703125 C 244.261719 227.363281 275.484375 272.238281 307.753906 318.421875 C 340.027344 364.609375 372.824219 411.847656 380.957031 423.394531 C 388.828125 434.941406 404.308594 456.984375 415.328125 472.464844 C 426.085938 487.949219 444.449219 514.453125 455.996094 530.988281 C 467.539062 547.78125 481.183594 567.203125 486.167969 574.289062 C 491.152344 581.371094 504.796875 600.792969 516.339844 617.324219 L 537.328125 647.765625 L 573.535156 647.765625 C 593.476562 647.765625 609.21875 646.714844 608.433594 645.667969 C 607.644531 644.355469 594.527344 625.199219 578.785156 602.890625 C 563.304688 580.585938 518.703125 516.554688 479.609375 460.394531 C 421.363281 376.945312 360.492188 289.820312 343.960938 266.726562 C 342.125 264.101562 325.859375 240.484375 307.492188 214.242188 L 274.433594 166.21875 L 238.488281 165.429688 C 218.8125 165.167969 202.808594 165.429688 202.808594 166.21875 Z M 202.808594 166.21875 " fill-opacity="1" fill-rule="nonzero"/></svg>